<svg xmlns="http://www.w3.org/2000/svg" width="190" height="92" viewBox="0 0 190 92" fill="none">
  <path d="M59.8585 87.8512C59.248 87.3573 58.5028 87.0879 57.8294 87.0879C56.5096 87.0879 55.4771 88.1026 55.4771 89.3508C55.4771 90.5991 56.5006 91.6138 57.8653 91.6138C58.5297 91.6138 59.3108 91.3624 59.8675 90.9493V89.0365H57.7037V89.8088H58.9876V90.5272C58.7182 90.7068 58.2873 90.8146 57.9012 90.8146C56.9495 90.8146 56.4467 90.1052 56.4467 89.3598C56.4467 88.5606 57.0124 87.9051 57.8294 87.9051C58.2693 87.9051 58.8529 88.1026 59.23 88.4439L59.8495 87.8602L59.8585 87.8512Z" fill="#261111"/>
  <path d="M62.5247 89.3419C62.5247 88.5516 63.1532 87.8961 63.9523 87.8961C64.7514 87.8961 65.4068 88.5516 65.4068 89.3419C65.4068 90.1321 64.7693 90.8146 63.9523 90.8146C63.1353 90.8146 62.5247 90.1501 62.5247 89.3419ZM61.5371 89.3419C61.5371 90.608 62.5966 91.6138 63.9433 91.6138C65.2901 91.6138 66.3764 90.608 66.3764 89.3419C66.3764 88.0757 65.2901 87.0879 63.9433 87.0879C62.5966 87.0879 61.5371 88.1026 61.5371 89.3419Z" fill="#261111"/>
  <path d="M68.1816 87.2135V91.488H71.6203V90.6798H69.1154V87.2135H68.1816Z" fill="#261111"/>
  <path d="M74.1159 90.6798V88.0307H75.1574C75.6602 88.0307 75.8846 88.1564 76.1091 88.3719C76.3425 88.6144 76.4682 88.9556 76.4682 89.3597C76.4682 89.7908 76.3246 90.132 76.0732 90.3834C75.8487 90.581 75.6512 90.6888 75.1574 90.6888H74.1159V90.6798ZM75.1843 91.488C75.9924 91.488 76.4502 91.2725 76.8184 90.9222C77.2134 90.5271 77.4289 89.9704 77.4289 89.3507C77.4289 88.7311 77.2224 88.2103 76.8543 87.8241C76.4772 87.438 75.9654 87.2135 75.1843 87.2135H73.1821V91.479H75.1843V91.488Z" fill="#261111"/>
  <path d="M83.5793 90.5722C83.2741 90.7518 83.0047 90.8236 82.7982 90.8236C82.475 90.8236 82.062 90.671 82.062 90.213C82.062 89.8628 82.3134 89.6473 82.5648 89.5216L83.5883 90.5722H83.5793ZM84.522 87.6717C84.2437 87.537 83.7948 87.3484 83.31 87.3484C82.5827 87.3484 81.9542 87.7704 81.9542 88.4439C81.9542 88.6595 82.0171 88.8391 82.1428 89.0276C81.5771 89.2432 81.1372 89.6114 81.1372 90.2848C81.1372 91.2098 81.9632 91.5869 82.6725 91.5869C83.0945 91.5869 83.6242 91.4522 84.109 91.12L84.4682 91.4882H85.6264L84.7555 90.5812C85.0428 90.2849 85.3391 89.9257 85.6443 89.4587L84.953 89.1174C84.7106 89.5036 84.4682 89.8089 84.2437 90.0514L83.4446 89.2252C83.3189 89.0995 82.888 88.7223 82.888 88.4439C82.888 88.2913 83.0227 88.1386 83.31 88.1386C83.5973 88.1386 83.9474 88.2733 84.136 88.3811L84.531 87.6807L84.522 87.6717Z" fill="#261111"/>
  <path d="M90.3398 90.6798V88.0307H91.3813C91.8841 88.0307 92.1086 88.1564 92.324 88.3719C92.5575 88.6144 92.6832 88.9556 92.6832 89.3597C92.6832 89.7908 92.5395 90.132 92.2881 90.3834C92.0637 90.581 91.8661 90.6888 91.3723 90.6888H90.3308L90.3398 90.6798ZM91.4172 91.488C92.2163 91.488 92.6832 91.2725 93.0513 90.9222C93.4463 90.5271 93.6618 89.9704 93.6618 89.3507C93.6618 88.7311 93.4553 88.2103 93.0872 87.8241C92.7101 87.438 92.1983 87.2135 91.4172 87.2135H89.415V91.479H91.4172V91.488Z" fill="#261111"/>
  <path d="M96.4098 87.2135H95.4761V91.479H96.4098V87.2135Z" fill="#261111"/>
  <path d="M100.279 88.3362H100.315L100.962 89.8448H99.6328L100.279 88.3362ZM97.9448 91.4882H98.9324L99.3185 90.5902H101.294L101.689 91.4882H102.712L100.737 87.2227H99.929L97.9538 91.4882H97.9448Z" fill="#261111"/>
  <path d="M108.809 91.488V87.2135H107.938L106.546 89.5573H106.537L105.137 87.2135H104.239V91.488H105.146V89.0095H105.182L106.376 91.0031H106.636L107.83 89.0095H107.866V91.488H108.809Z" fill="#261111"/>
  <path d="M111.583 89.3419C111.583 88.5516 112.212 87.8961 113.011 87.8961C113.81 87.8961 114.465 88.5516 114.465 89.3419C114.465 90.1321 113.828 90.8146 113.011 90.8146C112.194 90.8146 111.583 90.1501 111.583 89.3419ZM110.604 89.3419C110.604 90.608 111.664 91.6138 113.011 91.6138C114.357 91.6138 115.444 90.608 115.444 89.3419C115.444 88.0757 114.357 87.0879 113.011 87.0879C111.664 87.0879 110.604 88.1026 110.604 89.3419Z" fill="#261111"/>
  <path d="M120.229 87.2135V89.8626H120.22L118.047 87.2135H117.239V91.488H118.182V88.8479H118.191L120.355 91.488H121.163V87.2135H120.229Z" fill="#261111"/>
  <path d="M124.215 90.6798V88.0307H125.257C125.76 88.0307 125.984 88.1564 126.2 88.3719C126.433 88.6144 126.559 88.9556 126.559 89.3597C126.559 89.7908 126.415 90.132 126.164 90.3834C125.939 90.581 125.742 90.6888 125.248 90.6888H124.207L124.215 90.6798ZM125.284 91.488C126.083 91.488 126.55 91.2725 126.918 90.9222C127.313 90.5271 127.528 89.9704 127.528 89.3507C127.528 88.7311 127.322 88.2103 126.954 87.8241C126.577 87.438 126.065 87.2135 125.284 87.2135H123.282V91.479H125.284V91.488Z" fill="#261111"/>
  <path d="M132.888 87.6626C132.52 87.4112 131.775 87.0879 130.886 87.0879C130.078 87.0879 129.126 87.4112 129.126 88.4439C129.126 89.5304 130.222 89.6292 131.155 89.6921C131.793 89.746 132.233 89.8358 132.233 90.2488C132.233 90.6619 131.802 90.8595 131.263 90.8595C130.401 90.8595 129.791 90.4284 129.432 90.1411L128.902 90.7787C129.396 91.1828 130.141 91.6228 131.245 91.6228C132.287 91.6228 133.167 91.2097 133.167 90.159C133.167 88.9827 131.954 88.8929 131.173 88.839C130.617 88.7941 130.06 88.7671 130.06 88.39C130.06 88.0128 130.437 87.8691 130.868 87.8691C131.577 87.8691 132.107 88.1385 132.367 88.3271L132.906 87.6716L132.888 87.6626Z" fill="#261111"/>
  <path d="M8.13439 72.3786C14.1678 72.3786 16.2418 68.7507 16.2418 65.5269V54.9485H12.848V65.1947C12.848 67.8976 11.8963 70.2684 7.97278 70.2684C4.57896 70.2684 2.90001 67.4307 2.20868 66.3172L0 68.0593C0.49381 68.9483 2.63964 72.3786 8.13439 72.3786Z" fill="#261111"/>
  <path d="M24.1519 71.9476H40.2949V69.8732H27.5726V64.1709H34.4321V62.1594H27.5726V56.9869H39.6036V54.9485H24.1519V71.9476Z" fill="#261111"/>
  <path d="M51.1946 71.9476H53.2776L58.2516 59.196L63.1897 71.9476H65.2637L71.791 54.9485H69.2501L64.7071 67.3409L60.0922 54.9485H57.6591L52.8826 67.3409L48.4293 54.9485H44.811L51.1946 71.9476Z" fill="#261111"/>
  <path d="M77.6177 71.9476H93.7608V69.8732H81.0474V64.1709H87.8979V62.1594H81.0474V56.9869H93.0694V54.9485H77.6177V71.9476Z" fill="#261111"/>
  <path d="M99.5967 71.9476H113.334V69.8732H103.017V54.9485H99.5967V71.9476Z" fill="#261111"/>
  <path d="M133.266 70.6996C128.687 70.6996 126.02 67.5386 126.02 63.4527C126.02 59.3668 128.687 56.2059 133.266 56.2059C137.845 56.2059 140.412 59.4027 140.412 63.4527C140.412 67.5027 137.809 70.6996 133.266 70.6996ZM133.266 72.5405C139.299 72.5405 144.201 68.4905 144.201 63.4437C144.201 58.397 139.29 54.3201 133.266 54.3201C127.241 54.3201 122.33 58.406 122.33 63.4437C122.33 68.4815 127.268 72.5405 133.266 72.5405Z" fill="#261111"/>
  <path d="M149.902 71.9476H152.273V59.1332L163.873 71.9476H166.414V54.9485H164.07V67.305L152.964 54.9485H149.902V71.9476Z" fill="#261111"/>
  <path d="M173.857 71.9476H190V69.8732H177.278V64.1709H184.137V62.1594H177.278V56.9869H189.309V54.9485H173.857V71.9476Z" fill="#261111"/>
  <path d="M112.463 30.5589C111.062 33.226 110.272 38.1201 103.448 38.3895H93.5631C94.3711 37.8956 95.1253 37.3119 95.8436 36.6473C103.996 30.7475 106.303 17.8971 112.382 12.6797C113.953 11.4585 115.605 10.7311 117.41 10.4527C117.814 10.4078 118.37 10.3629 119.142 10.336L119.071 10.318C119.071 10.318 119.115 10.318 119.142 10.318V8.65671C110.281 8.65671 105.98 11.0813 102.191 13.2185C100.656 14.0806 99.2015 14.8978 97.5315 15.4995C100.62 9.65349 103.448 4.01406 107.722 2.25398C108.458 1.9756 109.23 1.796 110.047 1.7062C110.137 1.7062 110.236 1.69722 110.335 1.68824C110.362 1.68824 110.389 1.68824 110.415 1.67028C110.64 1.65232 110.864 1.64334 111.098 1.64334V0H82.9417L82.8699 0.17062L78.9643 8.91713L80.5894 9.50083C81.999 6.81581 82.7801 1.89478 89.7024 1.6613H105.199C104.957 1.80498 104.714 1.96662 104.481 2.12826C99.4619 4.84021 96.4811 10.6592 93.5721 16.2628C89.6755 16.3166 85.4646 14.5925 85.4646 14.5925C85.4287 14.5566 84.5937 17.2685 84.5937 17.2685C87.0717 17.6277 89.442 18.2743 92.6204 18.0857C89.7922 23.4378 86.8203 28.2421 81.9361 29.4903C81.1909 29.6519 80.4188 29.7327 79.6197 29.7327C75.1215 29.7327 73.0386 27.7302 72.0869 26.051C71.9252 25.7636 71.7906 25.4762 71.6649 25.1709C70.8299 22.7463 71.7098 20.3666 73.1104 19.0555L71.7187 18.2833L70.7491 17.6996C69.124 20.4205 69.0791 24.1113 70.6503 26.8681C72.3023 29.7776 75.4897 31.3851 79.6197 31.3851C79.6197 31.3851 80.5714 31.3581 81.0203 31.3132C88.5173 30.7116 92.782 24.2819 96.4362 17.5649C98.995 16.9363 100.97 15.8138 103.008 14.6733C105.486 13.2724 108.018 11.8446 111.834 11.0274C111.098 11.5572 110.442 12.1948 109.742 12.8144C102.308 19.4147 98.8783 31.6365 92.8987 36.8718C91.3724 37.8417 89.6575 38.3984 87.6733 38.3984H83.9383C80.5534 38.2997 77.7702 37.5992 74.8432 36.8449C74.7355 37.6082 74.5918 39.4401 74.4661 40.1226L82.2055 40.0508H104.032H110.119H110.128L110.855 38.3984L114.097 31.1426L112.472 30.5589H112.463Z" fill="#261111"/>
</svg>