<svg xmlns="http://www.w3.org/2000/svg" width="92" height="74" viewBox="0 0 92 74" fill="none">
  <path d="M79.6203 56.3612C77.0246 61.2802 75.5603 70.3066 62.9145 70.8035H44.5945C46.0921 69.8926 47.4898 68.816 48.8209 67.5904C63.9294 56.709 68.2058 33.0085 79.4706 23.3859C82.3825 21.1334 85.4441 19.7919 88.7886 19.2784C89.5374 19.1956 90.569 19.1128 92 19.0631L91.8669 19.03C91.8669 19.03 91.9501 19.03 92 19.03V15.966C75.577 15.966 67.6067 20.4378 60.5849 24.3796C57.7396 25.9696 55.044 27.4767 51.9491 28.5864C57.6731 17.8044 62.9145 7.40331 70.8348 4.15712C72.1992 3.64369 73.6302 3.31244 75.1444 3.14682C75.3108 3.14682 75.4938 3.13026 75.6768 3.1137C75.7267 3.1137 75.7767 3.1137 75.8266 3.08057C76.2426 3.04745 76.6585 3.03089 77.0912 3.03089V0H24.9102L24.7771 0.314682L17.539 16.4463L20.5507 17.5228C23.1631 12.5707 24.6107 3.49463 37.4396 3.06401H66.1591C65.7099 3.32901 65.2606 3.62713 64.828 3.92525C55.5266 8.92704 50.0023 19.6594 44.6112 29.9942C37.3897 30.0936 29.5859 26.9136 29.5859 26.9136C29.5193 26.8474 27.9718 31.8491 27.9718 31.8491C32.5643 32.5116 36.9571 33.7041 42.8474 33.3563C37.606 43.2274 32.0984 52.0882 23.0466 54.3903C21.6655 54.6884 20.2346 54.8375 18.7537 54.8375C10.4173 54.8375 6.55702 51.1441 4.79325 48.047C4.49374 47.517 4.24415 46.987 4.0112 46.4239C2.46374 41.9521 4.09439 37.5631 6.69013 35.145L4.11103 33.7207L2.31399 32.6441C-0.69773 37.6625 -0.780928 44.4696 2.13096 49.5542C5.19259 54.9203 11.0996 57.885 18.7537 57.885C18.7537 57.885 20.5174 57.8353 21.3494 57.7525C35.2432 56.6428 43.1469 44.7842 49.9191 32.3957C54.6613 31.2363 58.322 29.1661 62.0991 27.0627C66.6916 24.479 71.3839 21.8456 78.4556 20.3384C77.0912 21.3156 75.8765 22.4915 74.5786 23.6343C60.8013 35.8075 54.445 58.3487 43.3632 68.0045C40.5345 69.7932 37.3564 70.8201 33.6791 70.8201H26.7572C20.4841 70.6379 15.3259 69.346 9.90152 67.9548C9.70185 69.3626 9.43563 72.7413 9.20267 74L23.5458 73.8675H63.996H75.2775H75.2941L76.6419 70.8201L82.6487 57.4378L79.637 56.3612H79.6203Z" fill="#F2EDE4"/>
</svg>