<svg xmlns="http://www.w3.org/2000/svg" width="28" height="21" viewBox="0 0 28 21" fill="none">
  <path d="M21.9537 0.825104H5.14949C2.3099 0.825104 0 3.13445 0 5.97214V12.3814C0 15.2204 2.3099 17.5301 5.14949 17.5301H6.32666L8.99368 20.1968L11.6607 17.5301H21.9537C24.7927 17.5301 27.1021 15.2204 27.1021 12.3814V5.97214C27.1021 3.13418 24.7927 0.825104 21.9537 0.825104ZM25.92 12.3814C25.92 14.5681 24.1406 16.348 21.9537 16.348H11.1714L8.99368 18.5254L6.81601 16.348H5.14949C2.962 16.348 1.1818 14.5686 1.1818 12.3814V5.97214C1.1818 3.78547 2.962 2.0069 5.14949 2.0069H21.9537C24.1404 2.0069 25.92 3.78519 25.92 5.97214V12.3814Z" fill="#F2EDE4"/>
  <path d="M13.5512 7.11295C12.6131 7.11295 11.8525 7.8722 11.8525 8.81137C11.8525 9.74863 12.6131 10.5101 13.5512 10.5101C14.4893 10.5101 15.2496 9.74836 15.2496 8.81137C15.2496 7.8722 14.4893 7.11295 13.5512 7.11295Z" fill="#F2EDE4"/>
  <path d="M19.4596 7.11295C18.5216 7.11295 17.7612 7.8722 17.7612 8.81137C17.7612 9.74863 18.5216 10.5101 19.4596 10.5101C20.3977 10.5101 21.1581 9.74836 21.1581 8.81137C21.1581 7.8722 20.3977 7.11295 19.4596 7.11295Z" fill="#F2EDE4"/>
  <path d="M7.64204 7.11295C6.70397 7.11295 5.94336 7.8722 5.94336 8.81137C5.94336 9.74863 6.70397 10.5101 7.64204 10.5101C8.5804 10.5101 9.34073 9.74836 9.34073 8.81137C9.341 7.8722 8.58067 7.11295 7.64204 7.11295Z" fill="#F2EDE4"/>
</svg>