<svg xmlns="http://www.w3.org/2000/svg" width="26" height="22" viewBox="0 0 26 22" fill="none">
  <path d="M25.6364 7.23993C25.6583 7.20585 25.6778 7.17178 25.6948 7.13528C25.6948 7.13284 25.6973 7.13041 25.6973 7.12798C25.7143 7.08904 25.724 7.0501 25.7338 7.00873C25.7362 6.99656 25.7386 6.98439 25.7411 6.97222C25.7459 6.93816 25.7508 6.90165 25.7508 6.86758C25.7508 6.86028 25.7532 6.85541 25.7532 6.84811V6.84081C25.7532 6.797 25.7484 6.75563 25.7411 6.71183C25.7386 6.69966 25.7362 6.68749 25.7313 6.67775C25.724 6.64855 25.7143 6.61935 25.7046 6.59014C25.6997 6.57554 25.6948 6.56337 25.6875 6.54877C25.6851 6.54147 25.6827 6.53417 25.6778 6.52687L22.6552 0.40642C22.5335 0.158188 22.278 0 22.0006 0H13.1566C13.1031 0 13.052 0.0073009 13.0009 0.0170354C12.9498 0.0073009 12.8987 0 12.8451 0H4.00119C3.72376 0 3.47066 0.158185 3.34653 0.40642L0.321536 6.5222C0.319103 6.5295 0.316669 6.5368 0.311802 6.5441C0.306935 6.55627 0.299633 6.57087 0.294766 6.58547C0.282598 6.61467 0.275297 6.64388 0.267996 6.67308C0.265563 6.68525 0.260695 6.69742 0.258262 6.70959C0.250961 6.75096 0.246094 6.79476 0.246094 6.83857V6.84587C0.246094 6.85317 0.248527 6.85804 0.248527 6.86534C0.248527 6.90184 0.253395 6.93591 0.258262 6.96998C0.260695 6.98215 0.263129 6.99432 0.265563 7.00649C0.275297 7.04786 0.287465 7.0868 0.302068 7.12574C0.304502 7.12817 0.304502 7.1306 0.306935 7.13304C0.321537 7.16954 0.341008 7.20361 0.36291 7.23769C0.370211 7.24742 0.377511 7.25959 0.384812 7.26932C0.394547 7.28149 0.401848 7.29366 0.411583 7.30583L12.2805 21.7347C12.4241 21.91 12.6334 22 12.8451 22C12.8963 22 12.9498 21.9927 13.0009 21.9805C13.052 21.9927 13.1031 22 13.1567 22C13.3684 22 13.5777 21.91 13.7213 21.7347L25.5902 7.30583C25.5999 7.29366 25.6072 7.28149 25.617 7.26932C25.6219 7.26202 25.6291 7.25209 25.6364 7.23993ZM23.8501 6.11558H20.1438L21.952 2.27285L23.8501 6.11558ZM12.1273 2.61613L12.1492 6.11558H8.73226L12.1273 2.61613ZM7.21856 5.57786L5.27895 1.45291H11.2193L7.21856 5.57786ZM13.5851 2.31671L17.2671 6.11552H13.6094L13.5851 2.31671ZM14.7825 1.45522H20.7229L18.7832 5.58016L14.7825 1.45522ZM4.05018 2.27292L5.85838 6.11564H2.15209L4.05018 2.27292ZM13.001 20.3159L2.52412 7.57598H12.159L12.2198 17.1791C12.2222 17.5806 12.5484 17.9043 12.9499 17.9043H12.9548C13.3588 17.9018 13.6824 17.5733 13.68 17.1693L13.6192 7.57588H23.4802L13.001 20.3159Z" fill="#A76F25"/>
  <path d="M8.24118 8.885C8.02945 8.54185 7.57923 8.43721 7.23607 8.64894C6.89292 8.86067 6.78829 9.31089 7.00001 9.65404L9.98364 14.4606C10.1224 14.6845 10.3608 14.8061 10.6042 14.8061C10.7356 14.8061 10.8695 14.7696 10.9887 14.6966C11.3319 14.4849 11.4365 14.0347 11.2248 13.6915L8.24118 8.885Z" fill="#A76F25"/>
  <path d="M18.7671 8.64894C18.4239 8.43721 17.9737 8.54186 17.762 8.885L14.7783 13.6915C14.5666 14.0347 14.6713 14.4849 15.0144 14.6966C15.1336 14.7721 15.2675 14.8061 15.3989 14.8061C15.6423 14.8061 15.8808 14.6845 16.0195 14.4605L19.0031 9.65652C19.2148 9.31337 19.1102 8.8631 18.7671 8.64894Z" fill="#A76F25"/>
</svg>