<svg xmlns="http://www.w3.org/2000/svg" width="25" height="21" viewBox="0 0 25 21" fill="none">
  <path d="M21.6405 0.333374H3.17897C1.48205 0.333374 0.102051 1.71337 0.102051 3.4103V17.2565C0.102051 18.9534 1.48205 20.3334 3.17897 20.3334H21.6405C23.3374 20.3334 24.7174 18.9534 24.7174 17.2565V3.4103C24.7174 1.71337 23.3374 0.333374 21.6405 0.333374ZM21.6405 1.87184C21.6897 1.87184 21.739 1.87491 21.7867 1.87953C21.8021 1.87953 21.8174 1.88414 21.8344 1.88568C21.8667 1.8903 21.899 1.89491 21.9297 1.90107C21.9482 1.90414 21.9651 1.90876 21.9836 1.91337C22.0128 1.91953 22.0421 1.92722 22.0697 1.93491C22.0867 1.93953 22.1051 1.94568 22.1221 1.95184C22.1497 1.96107 22.1774 1.97184 22.2051 1.9826C22.2221 1.98876 22.2374 1.99491 22.2528 2.0026C22.2836 2.01645 22.3128 2.0303 22.3421 2.04568C22.3544 2.05184 22.3667 2.05799 22.379 2.06414C22.419 2.08568 22.459 2.1103 22.4959 2.13491C22.5036 2.14107 22.5113 2.14722 22.5205 2.15337C22.5497 2.17337 22.579 2.19491 22.6067 2.21799C22.619 2.22876 22.6313 2.23953 22.6451 2.2503C22.6667 2.2703 22.6897 2.28876 22.7097 2.3103C22.7221 2.3226 22.7359 2.33645 22.7482 2.34876C22.7682 2.36876 22.7867 2.3903 22.8051 2.41184C22.8174 2.42568 22.8282 2.43953 22.8405 2.45337C22.859 2.47645 22.8759 2.49953 22.8928 2.52414C22.9021 2.53799 22.9128 2.55184 22.9221 2.56568C22.9421 2.59491 22.9605 2.62568 22.9774 2.65799C22.9821 2.66722 22.9882 2.67491 22.9928 2.68414C23.0144 2.72414 23.0344 2.76568 23.0528 2.80876C23.0574 2.82107 23.0621 2.83491 23.0682 2.84722C23.0805 2.87799 23.0928 2.90876 23.1021 2.94107C23.1067 2.95799 23.1113 2.97491 23.1174 2.99184C23.1221 3.0103 23.1267 3.02876 23.1313 3.04722L12.4082 10.5534L1.68667 3.0426C1.69128 3.02414 1.6959 3.00568 1.70051 2.98722C1.70513 2.9703 1.70974 2.95337 1.7159 2.93645C1.72667 2.90414 1.73744 2.87337 1.74974 2.8426C1.75436 2.8303 1.75897 2.81645 1.76513 2.80414C1.78359 2.76107 1.80359 2.71953 1.82513 2.67953C1.82974 2.6703 1.8359 2.6626 1.84051 2.65337C1.85897 2.6226 1.8759 2.59184 1.8959 2.56107C1.90513 2.54722 1.9159 2.53337 1.92513 2.51953C1.94205 2.49491 1.95897 2.47184 1.97744 2.44876C1.9882 2.43491 2.00051 2.42107 2.01282 2.40722C2.03128 2.38568 2.04974 2.36414 2.06974 2.34414C2.08205 2.3303 2.09436 2.31799 2.1082 2.30568C2.12974 2.28568 2.15128 2.26568 2.17282 2.24568C2.18513 2.23491 2.19744 2.22414 2.21128 2.21337C2.23897 2.1903 2.2682 2.16876 2.29744 2.14876C2.30513 2.1426 2.31282 2.13645 2.32205 2.1303C2.36051 2.10414 2.39897 2.08107 2.43897 2.05953C2.45128 2.05337 2.46359 2.04722 2.4759 2.04107C2.50513 2.02568 2.53436 2.01184 2.56513 1.99799C2.58051 1.9903 2.59744 1.98414 2.61282 1.97799C2.64051 1.96722 2.6682 1.95645 2.6959 1.94722C2.71282 1.94107 2.73128 1.93645 2.7482 1.9303C2.7759 1.9226 2.80513 1.91491 2.83436 1.90876C2.85128 1.90414 2.86974 1.90107 2.8882 1.89645C2.92051 1.8903 2.95128 1.88568 2.98359 1.88107C2.99897 1.87953 3.01436 1.87645 3.03128 1.87491C3.07897 1.8703 3.1282 1.86722 3.17744 1.86722H21.639L21.6405 1.87184ZM21.6405 18.7949H3.17897C2.33128 18.7949 1.64051 18.1041 1.64051 17.2565V4.88722L11.9682 12.1165C12.1005 12.2088 12.2544 12.2549 12.4097 12.2549C12.5651 12.2549 12.719 12.2088 12.8513 12.1165L23.179 4.88722V17.2565C23.179 18.1041 22.4882 18.7949 21.6405 18.7949Z" fill="#F2EDE4"/>
</svg>