<svg xmlns="http://www.w3.org/2000/svg" width="17" height="14" viewBox="0 0 17 14" fill="none">
  <path d="M0 1.09917C0 0.588326 0.380562 0.174194 0.85 0.174194H16.15C16.6195 0.174194 17 0.588326 17 1.09917C17 1.61002 16.6195 2.02415 16.15 2.02415H0.85C0.380562 2.02415 0 1.61002 0 1.09917Z" fill="white"/>
  <path d="M2.54883 6.65032C2.54883 6.13946 2.92939 5.72534 3.39883 5.72534H13.5988C14.0683 5.72534 14.4488 6.13946 14.4488 6.65032C14.4488 7.16119 14.0683 7.5753 13.5988 7.5753H3.39883C2.92939 7.5753 2.54883 7.16119 2.54883 6.65032Z" fill="white"/>
  <path d="M5.95156 11.2764C5.48212 11.2764 5.10156 11.6905 5.10156 12.2013C5.10156 12.7122 5.48212 13.1263 5.95156 13.1263H11.0516C11.521 13.1263 11.9016 12.7122 11.9016 12.2013C11.9016 11.6905 11.521 11.2764 11.0516 11.2764H5.95156Z" fill="white"/>
</svg>