<svg xmlns="http://www.w3.org/2000/svg" width="20" height="20" viewBox="0 0 20 20" fill="none">
  <g clip-path="url(#clip0_8638_747)">
    <path d="M0 0V9.41406H0.0390625C0.0391859 8.29492 0.388366 7.15227 0.826191 6.13281C3.60766 -0.343823 12.9277 -1.79678 17.5501 3.51562C18.2007 4.26332 18.7659 5.10164 19.1571 6.01562C19.5999 7.05027 19.9608 8.19973 19.9609 9.33594H20V0H0Z" fill="white"/>
    <path d="M9.25781 0.273438V0.3125C13.4496 0.3125 17.3441 2.67667 18.8261 6.71875C20.3569 10.8941 18.7285 15.6569 15.0391 18.112C14.1382 18.7114 13.0014 19.3066 11.9141 19.4531C12.1165 19.5321 12.4114 19.4202 12.6172 19.3699C13.2466 19.2163 13.8672 18.9963 14.4531 18.7195C17.0331 17.5009 18.91 15.1984 19.6709 12.4609C20.9081 8.01016 18.6136 3.07291 14.4141 1.14487C12.7166 0.365552 11.0839 0.273239 9.25781 0.273438Z" fill="#BF9101"/>
    <path d="M17.9683 15.0391H17.9292C17.2972 16.1744 16.3033 17.1883 15.2339 17.9163C13.5108 19.0894 11.4341 19.7779 9.33549 19.686C3.50329 19.4306 -0.900225 13.8338 0.241738 8.12506C0.483486 6.91654 0.970716 5.75225 1.6532 4.72662C2.49349 3.46388 3.60092 2.40404 4.92143 1.65166C6.45374 0.778603 8.16221 0.3488 9.92143 0.351623C11.3881 0.353976 12.9339 0.801756 14.2183 1.49649C14.784 1.8025 15.2774 2.20127 15.8199 2.53912C15.6209 2.14737 14.9814 1.84868 14.6089 1.63484C13.339 0.905803 11.9301 0.455306 10.4683 0.348156C5.0912 -0.0460021 0.239326 4.12983 0.00109315 9.57037C-0.246455 15.2236 4.70213 20.2484 10.4292 19.6942C12.7592 19.4687 14.9274 18.5509 16.6011 16.8751C17.0649 16.4106 17.8134 15.6984 17.9683 15.0391Z" fill="#D9A509"/>
    <path d="M9.1405 0.368151C6.85515 0.668218 4.81027 1.36588 3.08581 2.97226C2.24328 3.7571 1.55798 4.71357 1.04492 5.7422C-1.66633 11.178 1.4962 17.9278 7.38269 19.3994C8.56038 19.6938 9.77542 19.7563 10.9764 19.5984C15.5577 18.996 19.1711 15.0469 19.3734 10.4297C19.5774 5.76954 16.2163 1.47003 11.6405 0.554691C10.8431 0.395179 9.95347 0.261407 9.1405 0.368151Z" fill="#E9C34F"/>
    <path d="M9.10125 1.69627C7.30286 1.9324 5.64622 2.46062 4.235 3.6607C3.4774 4.305 2.86979 5.11278 2.38796 5.97657C0.510895 9.34164 1.28531 13.8699 4.235 16.3784C5.99981 17.8791 8.40946 18.5843 10.7028 18.3092C11.9625 18.158 13.1893 17.7309 14.2575 17.0433C18.2818 14.4526 19.3155 8.5768 16.2868 4.81235C15.2216 3.48841 13.7671 2.5282 12.1481 2.03029C11.2021 1.73934 10.0904 1.5664 9.10125 1.69627Z" fill="#D7A301"/>
    <path d="M9.37459 2.00881C7.75401 2.2217 6.26377 2.67186 4.94451 3.68525C4.15893 4.28868 3.50685 5.06016 2.98495 5.89848C0.899263 9.24868 1.73662 13.7707 4.78178 16.261C6.54865 17.7059 8.8869 18.3151 11.1324 17.9967C12.246 17.8388 13.3018 17.4116 14.2574 16.828C15.0202 16.3622 15.6901 15.7393 16.2414 15.0391C18.9855 11.5538 18.3492 6.19891 14.7262 3.57134C13.9597 3.01548 13.0983 2.57771 12.1871 2.3161C11.3074 2.06355 10.2905 1.8885 9.37459 2.00881Z" fill="#E9C34F"/>
    <path d="M17.9688 5C18.2992 5.90773 18.8166 6.70246 19.067 7.65625C19.5492 9.4925 19.4356 11.4149 18.8147 13.2031C18.592 13.8445 18.1977 14.4101 17.9688 15.0391C18.4386 14.6366 18.7012 13.738 18.8932 13.1641C19.549 11.2038 19.6012 9.04309 18.9582 7.07031C18.7528 6.44008 18.4855 5.44266 17.9688 5Z" fill="#D9A505"/>
    <path d="M9.72656 5.97656C9.85559 6.52586 10.3317 7.10918 10.6207 7.59473C10.9439 8.13758 11.1955 8.77281 11.6016 9.25781C11.6561 8.97539 11.3974 8.6718 11.2579 8.4375C10.9123 7.85727 10.5942 7.26074 10.2499 6.67969C10.1182 6.45746 9.98625 6.05777 9.72656 5.97656Z" fill="#BF8F01"/>
    <path d="M9.6875 6.01562L8.44297 8.24219L7.92969 9.21875L7.85156 9.14062C7.61262 9.2718 7.19563 9.0541 6.95312 8.98336C6.26617 8.78293 5.39891 8.4191 4.6875 8.39844V8.51562C4.99051 8.68758 5.13098 9.26605 5.28309 9.57031L6.53309 12.0703C6.66273 12.3296 6.81617 12.8782 7.05613 13.0458C7.20199 13.1476 7.52465 13.0859 7.69531 13.0859C8.24441 13.0859 8.7877 13.0467 9.33594 13.0469C10.0887 13.0471 10.8459 13.0859 11.6016 13.0859C11.8447 13.0859 12.2628 13.1668 12.4848 13.0624C12.7611 12.9324 12.981 12.1828 13.1154 11.9141C13.5048 11.1352 13.8685 10.3441 14.2679 9.57031C14.4605 9.19719 14.7689 8.7743 14.8438 8.35938C14.7054 8.3775 14.474 8.40121 14.4531 8.55469C14.0808 8.48867 13.6751 8.67957 13.3203 8.78809C12.7404 8.96547 12.1469 9.09422 11.5625 9.25781C11.4402 8.84203 11.1159 8.45539 10.9026 8.07984C10.5314 7.42645 10.2068 6.55828 9.6875 6.01562Z" fill="#D7A301"/>
    <path d="M4.57031 8.24219C4.71652 8.47422 5.19766 8.52316 5.45219 8.59688C6.23086 8.82234 7.04859 9.1007 7.85156 9.21875C7.70043 9.01934 7.22953 8.96832 6.99219 8.90078C6.23195 8.68438 5.36035 8.27828 4.57031 8.24219Z" fill="#BF8F01"/>
    <path d="M14.8828 8.32031C14.3335 9.47414 13.7455 10.6143 13.1737 11.7578C13.0102 12.0848 12.7949 12.848 12.4848 13.0458C12.1763 13.2425 11.3412 13.0859 10.9766 13.0859H6.99219V13.125C8.36129 13.125 9.72645 13.1641 11.0938 13.1641H12.1484C12.2768 13.1641 12.4811 13.2016 12.5923 13.1239C12.9058 12.905 13.1202 12.1384 13.2909 11.7969C13.8593 10.66 14.5116 9.5325 15 8.35938L14.8828 8.32031Z" fill="#BF9101"/>
    <path d="M4.6875 8.51562C5.32914 10.0568 6.15082 11.6444 6.99219 13.0859H7.03125C6.91043 12.6666 6.64992 12.2649 6.45496 11.875L5.32215 9.60938C5.18098 9.32707 4.99777 8.6216 4.6875 8.51562Z" fill="#DFB123"/>
    <path d="M19.9609 10.5469C19.9608 11.666 19.6116 12.8087 19.1738 13.8281C16.3923 20.3048 7.0723 21.7577 2.44994 16.4453C1.79935 15.6976 1.23409 14.8593 0.842918 13.9453C0.400113 12.9107 0.0391879 11.7612 0.0390625 10.625H0V20H20V13.3203V11.4062L19.9609 10.5469Z" fill="white"/>
    <path d="M8.63281 13.0469V13.0859H9.72656L8.63281 13.0469Z" fill="#E3B735"/>
    <path d="M6.99219 13.125V13.1641H9.80469L8.90625 13.125H6.99219Z" fill="#D9AD25"/>
  </g>
  <defs>
    <clipPath id="clip0_8638_747">
      <rect width="20" height="20" fill="white"/>
    </clipPath>
  </defs>
</svg>