<svg xmlns="http://www.w3.org/2000/svg" width="24" height="24" viewBox="0 0 24 24" fill="none">
  <path d="M12 0.00012207C9.62663 0.00012207 7.30655 0.703909 5.33316 2.02249C3.35977 3.34106 1.8217 5.21521 0.913451 7.40792C0.0051994 9.60063 -0.232441 12.0134 0.230582 14.3412C0.693604 16.669 1.83649 18.8072 3.51472 20.4854C5.19295 22.1636 7.33115 23.3065 9.65892 23.7695C11.9867 24.2326 14.3995 23.9949 16.5922 23.0867C18.7849 22.1784 20.6591 20.6404 21.9776 18.667C23.2962 16.6936 24 14.3735 24 12.0001C24 8.81752 22.7357 5.76528 20.4853 3.51484C18.2348 1.2644 15.1826 0.00012207 12 0.00012207ZM12 21.6775C10.086 21.6775 8.21496 21.11 6.62352 20.0466C5.03207 18.9832 3.7917 17.4718 3.05924 15.7035C2.32677 13.9352 2.13513 11.9894 2.50853 10.1121C2.88194 8.23491 3.80362 6.51056 5.15704 5.15715C6.51045 3.80374 8.2348 2.88206 10.112 2.50865C11.9893 2.13525 13.9351 2.32689 15.7034 3.05935C17.4717 3.79181 18.9831 5.03219 20.0465 6.62363C21.1098 8.21508 21.6774 10.0861 21.6774 12.0001C21.6774 14.5667 20.6578 17.0282 18.843 18.8431C17.0281 20.658 14.5666 21.6775 12 21.6775Z" fill="#A76F25"/>
  <path d="M12.0002 11.613C11.6922 11.613 11.3968 11.7354 11.179 11.9532C10.9612 12.171 10.8389 12.4663 10.8389 12.7743V16.6453C10.8389 16.9533 10.9612 17.2487 11.179 17.4665C11.3968 17.6842 11.6922 17.8066 12.0002 17.8066C12.3082 17.8066 12.6035 17.6842 12.8213 17.4665C13.0391 17.2487 13.1614 16.9533 13.1614 16.6453V12.7743C13.1614 12.4663 13.0391 12.171 12.8213 11.9532C12.6035 11.7354 12.3082 11.613 12.0002 11.613Z" fill="#A76F25"/>
  <path d="M12.0002 8.90339C12.6415 8.90339 13.1614 8.38346 13.1614 7.7421C13.1614 7.10074 12.6415 6.58081 12.0002 6.58081C11.3588 6.58081 10.8389 7.10074 10.8389 7.7421C10.8389 8.38346 11.3588 8.90339 12.0002 8.90339Z" fill="#A76F25"/>
</svg>