<svg width="24" height="25" viewBox="0 0 24 25" fill="none" xmlns="http://www.w3.org/2000/svg">
<path d="M11.8892 2.47105C15.0694 2.47105 15.438 2.48157 16.6912 2.54476C17.8495 2.59741 18.4814 2.78696 18.9026 2.95545C19.4607 3.16607 19.8504 3.42935 20.2716 3.84004C20.6928 4.26127 20.9456 4.6509 21.1562 5.20902C21.3141 5.63025 21.5142 6.2621 21.5669 7.42048C21.6195 8.67363 21.6406 9.05273 21.6406 12.2225C21.6406 15.4027 21.6301 15.7713 21.5669 17.0245C21.5142 18.1828 21.3247 18.8147 21.1562 19.2359C20.9456 19.794 20.6823 20.1837 20.2716 20.6049C19.8504 21.0261 19.4607 21.2789 18.9026 21.4895C18.4814 21.6474 17.8495 21.8475 16.6912 21.9002C15.438 21.9528 15.0589 21.9739 11.8892 21.9739C8.70889 21.9739 8.34031 21.9634 7.08716 21.9002C5.92878 21.8475 5.29694 21.658 4.87571 21.4895C4.31759 21.2789 3.92795 21.0156 3.50672 20.6049C3.08549 20.1837 2.83276 19.794 2.62214 19.2359C2.46418 18.8147 2.2641 18.1828 2.21145 17.0245C2.15879 15.7713 2.13773 15.3922 2.13773 12.2225C2.13773 9.0422 2.14826 8.67363 2.21145 7.42048C2.2641 6.2621 2.45365 5.63025 2.62214 5.20902C2.83276 4.6509 3.09602 4.26127 3.50672 3.84004C3.92795 3.41882 4.31759 3.16607 4.87571 2.95545C5.29694 2.79749 5.92878 2.59741 7.08716 2.54476C8.32978 2.48157 8.70889 2.47105 11.8892 2.47105ZM11.8892 0.333321C8.65623 0.333321 8.25607 0.343843 6.98185 0.407027C5.71817 0.459681 4.85465 0.670299 4.09644 0.954628C3.31717 1.26002 2.65374 1.66019 1.9903 2.32362C1.32687 2.98706 0.926701 3.65049 0.621311 4.42976C0.326452 5.18797 0.126368 6.05148 0.0737146 7.31516C0.0105304 8.57885 0 8.98955 0 12.2225C0 15.4554 0.0105304 15.8556 0.0737146 17.1298C0.126368 18.3935 0.336982 19.257 0.621311 20.0152C0.926701 20.7945 1.32687 21.4579 1.9903 22.1213C2.65374 22.7848 3.31717 23.1849 4.09644 23.4903C4.85465 23.7852 5.71817 23.9853 6.98185 24.0484C8.24554 24.1011 8.65623 24.1222 11.8892 24.1222C15.1221 24.1222 15.5222 24.1116 16.7965 24.0484C18.0601 23.9958 18.9237 23.7852 19.6819 23.4903C20.4611 23.1849 21.1246 22.7848 21.788 22.1213C22.4514 21.4579 22.8516 20.7945 23.157 20.0152C23.4519 19.257 23.6519 18.3935 23.7151 17.1298C23.7678 15.8661 23.7888 15.4554 23.7888 12.2225C23.7888 8.98955 23.7783 8.58938 23.7151 7.31516C23.6625 6.05148 23.4519 5.18797 23.157 4.42976C22.8516 3.65049 22.4514 2.98706 21.788 2.32362C21.1246 1.66019 20.4611 1.26002 19.6819 0.954628C18.9237 0.659768 18.0601 0.459681 16.7965 0.407027C15.5222 0.343843 15.1221 0.333321 11.8892 0.333321Z" fill="#F2EDE4"/>
<path d="M11.8891 6.11431C8.51923 6.11431 5.78125 8.8523 5.78125 12.2221C5.78125 15.5919 8.51923 18.3299 11.8891 18.3299C15.2589 18.3299 17.9969 15.5919 17.9969 12.2221C17.9969 8.8523 15.2589 6.11431 11.8891 6.11431ZM11.8891 16.1922C9.69867 16.1922 7.92951 14.4125 7.92951 12.2327C7.92951 10.0423 9.7092 8.27311 11.8891 8.27311C14.0794 8.27311 15.8486 10.0528 15.8486 12.2327C15.8486 14.4125 14.0794 16.1922 11.8891 16.1922Z" fill="#F2EDE4"/>
<path d="M19.6612 5.87267C19.6612 6.66248 19.0189 7.30485 18.229 7.30485C17.4392 7.30485 16.7969 6.66248 16.7969 5.87267C16.7969 5.08287 17.4392 4.4405 18.229 4.4405C19.0294 4.45103 19.6612 5.08287 19.6612 5.87267Z" fill="#F2EDE4"/>
</svg>
