<svg xmlns="http://www.w3.org/2000/svg" width="37" height="37" viewBox="0 0 37 37" fill="none">
  <path d="M3.43848 0.832031H33.499C35.1114 0.832217 36.4228 2.1435 36.4229 3.75586V33.8164C36.4227 35.4287 35.1113 36.74 33.499 36.7402H3.43848C1.82612 36.7402 0.514835 35.4287 0.514648 33.8164V3.75586C0.514728 2.14344 1.82606 0.832111 3.43848 0.832031ZM3.43848 1.87012C2.39834 1.8702 1.55281 2.71572 1.55273 3.75586V33.8164C1.55292 34.8565 2.39841 35.7011 3.43848 35.7012H33.499C34.539 35.701 35.3836 34.8564 35.3838 33.8164V3.75586C35.3837 2.71579 34.5391 1.8703 33.499 1.87012H3.43848ZM5.24219 3.83789H31.6953C32.6448 3.83812 33.417 4.61003 33.417 5.55957V32.0127C33.4169 32.9621 32.6447 33.7341 31.6953 33.7344H5.24219C4.29257 33.7344 3.52063 32.9623 3.52051 32.0127V5.55957C3.52053 4.60989 4.2925 3.83789 5.24219 3.83789ZM5.24219 4.87598C4.86476 4.87598 4.55861 5.18215 4.55859 5.55957V32.0127C4.55872 32.39 4.86482 32.6953 5.24219 32.6953H31.6953C32.0725 32.6951 32.3778 32.3899 32.3779 32.0127V5.55957C32.3779 5.18229 32.0725 4.87621 31.6953 4.87598H5.24219ZM14.5332 12.9727C14.727 12.8143 15.0002 12.8199 15.1885 12.9727L15.2637 13.0469C15.4441 13.269 15.4114 13.5966 15.1895 13.7783L9.66016 18.3018C9.50508 18.4296 9.41527 18.6118 9.41016 18.8145C9.40509 19.0171 9.48571 19.2041 9.63574 19.3389L14.6064 23.8115C14.7928 23.9797 14.8299 24.2521 14.708 24.46L14.6455 24.5449C14.5428 24.658 14.4011 24.7168 14.2598 24.7168C14.1366 24.7167 14.0123 24.6718 13.9121 24.582H13.9111L8.94141 20.1094C8.56727 19.7739 8.36071 19.2922 8.37207 18.79C8.38356 18.2867 8.61418 17.8157 9.00293 17.4971L14.5332 12.9727ZM19.8105 12.876H19.8115C20.0864 12.9527 20.2484 13.2383 20.1719 13.5146L17.166 24.3359C17.1025 24.5655 16.8932 24.7158 16.666 24.7158C16.6431 24.7158 16.6205 24.7141 16.5977 24.7109L16.5273 24.6963C16.2509 24.6197 16.0888 24.3348 16.165 24.0586L19.1709 13.2363C19.2475 12.9599 19.5343 12.7983 19.8105 12.876ZM21.6729 13.0449C21.8546 12.823 22.1823 12.7909 22.4043 12.9727L27.9336 17.4971C28.3237 17.8155 28.5529 18.287 28.5645 18.7891C28.5745 19.2285 28.418 19.6527 28.1279 19.9766L27.9951 20.1094L23.0254 24.582C22.9251 24.6718 22.8 24.7158 22.6768 24.7158C22.5355 24.7158 22.3946 24.6573 22.292 24.543H22.291C22.1007 24.3301 22.1175 24.0016 22.3301 23.8096L27.3008 19.3369C27.4509 19.2021 27.5315 19.0152 27.5264 18.8125C27.5227 18.6109 27.4318 18.4282 27.2773 18.3008V18.2998L21.7471 13.7764C21.5249 13.5944 21.4914 13.2666 21.6729 13.0449Z" fill="black" stroke="white" stroke-width="0.163964"/>
</svg>