<svg xmlns="http://www.w3.org/2000/svg" width="28" height="21" viewBox="0 0 28 21" fill="none">
  <path d="M27.241 19.7939L23.732 12.5724C23.6105 12.3215 23.3561 12.1636 23.0779 12.1636H20.5772L17.268 5.35088C17.1465 5.09991 16.8921 4.94207 16.6138 4.94207H10.7018C10.4235 4.94207 10.1692 5.10106 10.0476 5.35088L6.73722 12.1636H4.23656C3.95833 12.1636 3.70396 12.3226 3.58244 12.5724L0.0734486 19.7939C-0.0367082 20.0188 -0.0219454 20.2856 0.110925 20.498C0.243793 20.7104 0.476593 20.8398 0.727572 20.8398H26.5857C26.8366 20.8398 27.0695 20.7104 27.2023 20.498C27.3352 20.2856 27.3499 20.0199 27.2398 19.7939H27.241ZM11.1572 6.39579H16.1585L18.96 12.1625H8.35545L11.1572 6.39579ZM16.0053 13.6173L13.6591 18.447L11.3129 13.6173H16.0065H16.0053ZM4.69334 13.6173H9.6946L12.4962 19.384L1.89071 19.3851L4.69229 13.6184L4.69334 13.6173ZM14.8209 19.384L17.6224 13.6173H22.6237L25.4253 19.384H14.8198H14.8209ZM13.0198 2.52689V0.728056C13.0198 0.326048 13.3457 0.00012207 13.7477 0.00012207C14.1497 0.00012207 14.4756 0.326048 14.4756 0.728056V2.52689C14.4756 2.92889 14.1497 3.25482 13.7477 3.25482C13.3457 3.25482 13.0198 2.92889 13.0198 2.52689ZM18.6228 3.32863L19.2679 1.64906C19.4121 1.27429 19.8323 1.08692 20.207 1.23115C20.5818 1.37537 20.7692 1.79555 20.6249 2.17032L19.9799 3.8499C19.8686 4.13948 19.5938 4.31665 19.3008 4.31665C19.2145 4.31665 19.1259 4.30075 19.0407 4.26781C18.666 4.12359 18.4786 3.7034 18.6228 3.32863ZM23.5674 6.08481L24.7711 4.74816C25.0403 4.44951 25.5002 4.42564 25.7977 4.69479C26.0964 4.96393 26.1203 5.42386 25.8511 5.72138L24.6473 7.05802C24.5043 7.21815 24.3055 7.29877 24.1068 7.29877C23.933 7.29877 23.7593 7.23745 23.6207 7.11253C23.3221 6.84339 23.2982 6.38346 23.5674 6.08594L23.5674 6.08481ZM6.86813 2.17026C6.72391 1.79549 6.91128 1.37418 7.28604 1.23109C7.66081 1.08687 8.08212 1.27424 8.22521 1.649L8.87026 3.32858C9.01448 3.70334 8.82711 4.12465 8.45235 4.26775C8.36604 4.30068 8.2786 4.31658 8.19229 4.31658C7.8993 4.31658 7.62449 4.13942 7.5132 3.84983L6.86813 2.17026ZM1.64185 5.72141C1.37271 5.42275 1.3977 4.9628 1.69523 4.69481C1.99388 4.42567 2.45383 4.45066 2.72182 4.74819L3.92557 6.08483C4.19472 6.38349 4.16973 6.84344 3.8722 7.11142C3.73365 7.23634 3.55877 7.29766 3.38615 7.29766C3.18741 7.29766 2.98867 7.21704 2.84558 7.05691L1.64183 5.72027L1.64185 5.72141Z" fill="#A76F25"/>
</svg>