<svg xmlns="http://www.w3.org/2000/svg" width="22" height="26" viewBox="0 0 22 26" fill="none">
  <path fill-rule="evenodd" clip-rule="evenodd" d="M0 6.58773C0 3.38367 2.59741 0.786255 5.80148 0.786255H16.1985C19.4027 0.786255 22 3.38367 22 6.58773V10.8305C22 11.3364 21.5899 11.7466 21.084 11.7466C20.5781 11.7466 20.168 11.3364 20.168 10.8305V6.58773C20.168 4.39547 18.3909 2.6183 16.1985 2.6183H5.80148C3.60923 2.6183 1.83205 4.39548 1.83205 6.58773V19.4132C1.83205 21.6055 3.60923 23.3826 5.80148 23.3826H11.069C11.5749 23.3826 11.9851 23.7927 11.9851 24.2986C11.9851 24.8046 11.5749 25.2147 11.069 25.2147H5.80148C2.59741 25.2147 0 22.6173 0 19.4132V6.58773Z" fill="#A76F25"/>
  <path fill-rule="evenodd" clip-rule="evenodd" d="M15.7278 12.1719C15.5817 12.0875 15.395 12.1376 15.3107 12.2837L14.4257 13.8166C14.3852 13.8867 14.3742 13.9702 14.3952 14.0483L16.5517 22.0969C16.7744 22.9275 17.6281 23.4205 18.4587 23.1979C19.2893 22.9753 19.7822 22.1215 19.5597 21.291L17.403 13.2423C17.3821 13.1642 17.331 13.0975 17.2607 13.0569L15.7278 12.1719ZM13.7242 11.3677C14.3143 10.3453 15.6216 9.99508 16.6438 10.5853L18.1768 11.4704C18.6678 11.7537 19.026 12.2207 19.1727 12.7682L21.3293 20.8168C21.8137 22.6247 20.7408 24.483 18.9329 24.9676C17.1249 25.4519 15.2666 24.379 14.7821 22.5711L12.6255 14.5225C12.4789 13.9749 12.5557 13.3915 12.839 12.9006L13.7242 11.3677Z" fill="#A76F25"/>
  <path fill-rule="evenodd" clip-rule="evenodd" d="M5.19824 8.10792C5.19824 7.60202 5.60836 7.19189 6.11426 7.19189H15.8852C16.3911 7.19189 16.8012 7.60202 16.8012 8.10792C16.8012 8.61382 16.3911 9.02394 15.8852 9.02394H6.11426C5.60836 9.02394 5.19824 8.61382 5.19824 8.10792Z" fill="#A76F25"/>
  <path fill-rule="evenodd" clip-rule="evenodd" d="M5.19824 12.9934C5.19824 12.4875 5.60836 12.0774 6.11426 12.0774H10.389C10.8949 12.0774 11.3051 12.4875 11.3051 12.9934C11.3051 13.4993 10.8949 13.9094 10.389 13.9094H6.11426C5.60836 13.9094 5.19824 13.4993 5.19824 12.9934Z" fill="#A76F25"/>
  <path fill-rule="evenodd" clip-rule="evenodd" d="M5.19824 17.8788C5.19824 17.3729 5.60836 16.9628 6.11426 16.9628H10.389C10.8949 16.9628 11.3051 17.3729 11.3051 17.8788C11.3051 18.3847 10.8949 18.7948 10.389 18.7948H6.11426C5.60836 18.7948 5.19824 18.3847 5.19824 17.8788Z" fill="#A76F25"/>
</svg>