<svg xmlns="http://www.w3.org/2000/svg" width="27" height="26" viewBox="0 0 27 26" fill="none">
  <path d="M25.2358 18.4169C23.8116 17.1723 21.3475 15.011 20.4502 14.5312C20.1539 14.3683 19.8238 14.2766 19.4859 14.2634C19.1481 14.2502 18.8118 14.3159 18.5037 14.4552C18.1196 14.6232 17.7835 14.8845 17.5257 15.2152C16.9384 15.9749 16.2274 16.6301 15.4225 17.1533C14.9477 17.4146 13.1484 16.3743 11.6244 14.9682C11.4573 14.819 11.2987 14.6604 11.1496 14.4932C9.72536 12.9731 8.69987 11.168 8.96099 10.6929C9.48412 9.885 10.1389 9.17049 10.898 8.57907C11.2216 8.32815 11.4791 8.00203 11.6481 7.62901C11.7888 7.3211 11.8552 6.98444 11.842 6.64615C11.8288 6.30785 11.7364 5.97739 11.5722 5.68139C11.0974 4.78359 8.92776 2.29919 7.67913 0.893101C7.36216 0.536317 6.95811 0.267894 6.50647 0.114053C6.28746 0.0293533 6.05326 -0.00889328 5.8187 0.00173717C5.58415 0.0123676 5.35436 0.0716437 5.1439 0.175808C4.49348 0.522579 2.29533 2.76471 1.6449 3.44876C1.455 3.64352 0.249101 5.01635 1.02771 8.37956C1.83955 11.9138 4.09942 15.9515 6.8388 18.8302L6.90527 18.9062C9.79182 21.8181 14.0267 24.2503 17.7488 25.0816C18.4258 25.2419 19.1185 25.3263 19.8141 25.3333C21.7131 25.3333 22.525 24.597 22.6626 24.4498C23.351 23.7847 25.5872 21.5996 25.929 20.9393C26.0322 20.7292 26.0906 20.4999 26.1004 20.266C26.1102 20.0321 26.0712 19.7987 25.986 19.5807C25.8402 19.1347 25.5818 18.7338 25.2358 18.4169ZM24.7991 20.317C23.8595 21.4411 22.8494 22.5041 21.7748 23.4997C21.6846 23.5757 20.6639 24.3738 18.0717 23.78C14.3729 22.8036 10.9767 20.9175 8.19188 18.2934C5.38534 15.4618 3.36594 11.9463 2.33331 8.09454C1.73511 5.50563 2.52796 4.47957 2.60392 4.39406C3.59692 3.31706 4.65781 2.30476 5.78008 1.36338C5.89084 1.33442 6.0082 1.34448 6.11242 1.39188C6.34315 1.47286 6.54916 1.61192 6.71062 1.79566C8.27258 3.55326 10.0719 5.67189 10.428 6.32743C10.4925 6.45139 10.5262 6.58908 10.5262 6.72883C10.5262 6.86858 10.4925 7.00627 10.428 7.13023C10.3507 7.31837 10.2245 7.48238 10.0624 7.60526C9.17074 8.30147 8.40617 9.14683 7.80257 10.1039C6.90527 11.7 9.39303 14.5882 10.1764 15.429C10.4138 15.6997 10.6986 15.9563 10.7081 15.9658C11.5579 16.7448 14.4492 19.2292 16.0444 18.3409C16.9989 17.7358 17.8407 16.9691 18.5322 16.075C18.6584 15.9152 18.8213 15.7881 19.007 15.7045C19.1331 15.6448 19.2715 15.6158 19.411 15.6199C19.5505 15.624 19.687 15.6612 19.8093 15.7283C20.4692 16.0845 22.5867 17.8801 24.348 19.4382C24.5348 19.599 24.6743 19.8075 24.7516 20.0415C24.7976 20.1307 24.8142 20.2321 24.7991 20.3313V20.317Z" fill="#F2EDE4"/>
</svg>