<svg width="20" height="26" viewBox="0 0 20 26" fill="none" xmlns="http://www.w3.org/2000/svg">
<path d="M3.04962 15.0261C3.3873 15.1642 3.69331 15.0367 3.78829 14.6545C3.8516 14.389 4.02044 13.7306 4.0943 13.4545C4.18928 13.0828 4.15762 12.9448 3.88326 12.6262C3.28177 11.9147 2.90189 11.0015 2.90189 9.6953C2.90189 5.92548 5.70881 2.54858 10.2041 2.54858C14.1823 2.54858 16.3772 5.00161 16.3772 8.27232C16.3772 12.5731 14.4883 16.2049 11.6709 16.2049C10.1197 16.2049 8.95893 14.9093 9.32826 13.3271C9.77146 11.4368 10.6367 9.39796 10.6367 8.02808C10.6367 6.80688 9.9825 5.78743 8.63181 5.78743C7.04896 5.78743 5.77212 7.43341 5.77212 9.65282C5.77212 11.0652 6.24698 12.0103 6.24698 12.0103C6.24698 12.0103 4.62192 18.934 4.33701 20.1446C3.76718 22.5551 4.25259 25.5179 4.2948 25.8152C4.3159 25.9958 4.54805 26.0382 4.64303 25.9002C4.79076 25.709 6.67962 23.3622 7.32332 21.0154C7.50271 20.357 8.368 16.9163 8.368 16.9163C8.88506 17.9039 10.394 18.7747 11.9874 18.7747C16.7571 18.7747 19.9861 14.3996 19.9861 8.54842C19.9861 4.12022 16.2611 -3.05176e-05 10.5945 -3.05176e-05C3.54558 -3.05176e-05 0 5.08657 0 9.32363C0.0105523 11.8935 0.970815 14.1766 3.04962 15.0261Z" fill="#F2EDE4"/>
</svg>
