<svg xmlns="http://www.w3.org/2000/svg" width="35" height="37" viewBox="0 0 35 37" fill="none">
  <rect x="0.924509" y="1.24189" width="33.4487" height="35.0883" rx="2.78739" stroke="black" stroke-width="0.983784"/>
  <path d="M11.4004 16.2564H6.66137C5.99734 16.2564 5.39345 15.9851 4.9565 15.547C4.51956 15.11 4.24707 14.5049 4.24707 13.8421V8.90295C4.24707 8.24014 4.51833 7.63628 4.9565 7.19931C5.3959 6.76113 5.99857 6.48865 6.66137 6.48865H28.18C28.8428 6.48865 29.4467 6.7599 29.8837 7.19808C30.3219 7.63748 30.5943 8.24014 30.5943 8.90295V13.8421C30.5943 14.5061 30.3231 15.1112 29.8849 15.547L29.8555 15.574C29.421 15.9949 28.8293 16.2564 28.1788 16.2564H23.4411C23.3405 17.5697 22.8176 18.7652 22.01 19.709L24.099 21.798L25.0686 20.8296C25.2527 20.6455 25.551 20.6455 25.7351 20.8296L27.2055 22.2988L31.251 26.3456C31.6831 26.7911 31.8991 27.3717 31.8991 27.9522C31.8991 28.5438 31.6733 29.1367 31.224 29.5871C30.7736 30.0376 30.1808 30.2634 29.5892 30.2634C28.9976 30.2634 28.4047 30.0376 27.9543 29.5884L23.9543 25.5872L22.4667 24.0995C22.2826 23.9154 22.2826 23.6172 22.4667 23.4331L23.4351 22.4646L21.3473 20.3756C20.293 21.2778 18.9207 21.824 17.4234 21.824C15.7554 21.824 14.2457 21.1477 13.1532 20.0553C12.1639 19.066 11.5171 17.7355 11.4029 16.2564L11.4004 16.2564ZM14.9953 18.7701C14.7351 18.7701 14.524 18.559 14.524 18.2988C14.524 18.0386 14.7351 17.8275 14.9953 17.8275H19.8471C20.1073 17.8275 20.3184 18.0386 20.3184 18.2988C20.3184 18.559 20.1073 18.7701 19.8471 18.7701H14.9953ZM14.9953 13.7439C14.7351 13.7439 14.524 13.5328 14.524 13.2726C14.524 13.0124 14.7351 12.8013 14.9953 12.8013H19.8471C20.1073 12.8013 20.3184 13.0124 20.3184 13.2726C20.3184 13.5328 20.1073 13.7439 19.8471 13.7439H14.9953ZM13.7384 16.2576C13.4782 16.2576 13.2671 16.0465 13.2671 15.7863C13.2671 15.5261 13.4782 15.315 13.7384 15.315H21.103C21.3632 15.315 21.5743 15.5261 21.5743 15.7863C21.5743 16.0465 21.3632 16.2576 21.103 16.2576H13.7384ZM24.2684 24.5708L26.2052 22.634L25.4013 21.8312L24.4402 22.7911L23.4632 23.7681L24.2672 24.572L24.2684 24.5708ZM26.8717 23.3004L24.9349 25.2373L28.6197 28.9221C28.886 29.1884 29.237 29.321 29.5881 29.321C29.9391 29.321 30.2914 29.1884 30.5565 28.9221C30.8228 28.6557 30.9566 28.3047 30.9566 27.9525C30.9566 27.6088 30.8302 27.2676 30.5786 27.0037L26.873 23.2994L26.8717 23.3004ZM23.4411 15.3137H28.1788C28.5741 15.3137 28.9325 15.1566 29.1964 14.9038L29.2172 14.8817C29.4836 14.6153 29.6505 14.2459 29.6505 13.8433V8.90417C29.6505 8.49911 29.4848 8.12969 29.2185 7.86456C28.9521 7.59821 28.5827 7.43251 28.1789 7.43251H6.66018C6.25512 7.43251 5.8857 7.59821 5.62057 7.86456C5.35422 8.1309 5.18852 8.50034 5.18852 8.90417V13.8433C5.18852 14.2471 5.35422 14.6153 5.62179 14.8817C5.88814 15.148 6.25757 15.315 6.66018 15.315H11.3992C11.5133 13.8347 12.1614 12.5054 13.1494 11.5161C14.2418 10.4237 15.7515 9.74743 17.4196 9.74743C19.0877 9.74743 20.5973 10.4237 21.6898 11.5161C22.6791 12.5054 23.3259 13.8347 23.4401 15.315L23.4411 15.3137ZM21.0231 12.1814C20.1014 11.2596 18.8273 10.6889 17.4194 10.6889C16.0115 10.6889 14.7375 11.2596 13.8157 12.1814C12.8939 13.1032 12.3232 14.3772 12.3232 15.7851C12.3232 17.193 12.8939 18.467 13.8157 19.3889C14.7375 20.3106 16.0115 20.8814 17.4194 20.8814C18.8174 20.8814 20.0853 20.318 21.0059 19.406L21.0316 19.379C21.9755 18.5137 22.5168 17.0482 22.5168 15.7841C22.5168 14.3763 21.9461 13.1022 21.0243 12.1804L21.0231 12.1814Z" fill="black"/>
</svg>