<svg xmlns="http://www.w3.org/2000/svg" width="35" height="37" viewBox="0 0 35 37" fill="none">
  <path d="M17.5366 10.1403C17.6283 10.1214 17.7253 10.1306 17.812 10.1686L26.3833 13.8942L26.3823 13.8951C26.3975 13.9007 26.4078 13.9077 26.4116 13.9108L26.4136 13.9117L26.4302 13.9186C26.4336 13.9203 26.4368 13.9237 26.4409 13.9264H26.4419C26.4437 13.9275 26.4451 13.9291 26.4468 13.9303C26.4501 13.9328 26.4542 13.9348 26.4575 13.9381H26.4565C26.4671 13.9466 26.4764 13.9541 26.48 13.9576H26.479C26.4815 13.9599 26.484 13.9617 26.4858 13.9635L26.4976 13.9752L26.5044 13.9791L26.5122 13.9869C26.5232 13.999 26.5432 14.0194 26.5571 14.0367H26.5552C26.5661 14.0488 26.5754 14.0616 26.5825 14.0729H26.5835C26.6007 14.0988 26.6098 14.1262 26.6167 14.1442L26.6333 14.1793L26.6353 14.1842H26.6343C26.6401 14.2028 26.6433 14.2196 26.645 14.233C26.6469 14.2483 26.6471 14.2561 26.6489 14.2672V14.2682C26.6493 14.2695 26.6507 14.2748 26.6519 14.2799C26.6531 14.2853 26.6548 14.2937 26.6548 14.3033V14.3121L26.6528 22.8834C26.6528 23.058 26.5522 23.2199 26.394 23.2946L17.8228 27.401L17.8218 27.4C17.8189 27.4014 17.8161 27.4038 17.813 27.4049C17.8073 27.407 17.8015 27.4089 17.7964 27.4098C17.7947 27.4101 17.793 27.4096 17.7915 27.4098C17.7432 27.4298 17.685 27.4469 17.6245 27.4469C17.5637 27.4469 17.5068 27.4293 17.4585 27.4098C17.456 27.4095 17.4528 27.4094 17.4497 27.4088C17.4427 27.4074 17.4346 27.4052 17.4263 27.401L8.854 23.2955V23.2946C8.697 23.22 8.59283 23.0592 8.6001 22.8776V14.3004C8.6001 14.2908 8.60182 14.2824 8.60303 14.277C8.60418 14.2718 8.60555 14.2666 8.60596 14.2653C8.60557 14.267 8.60498 14.2718 8.60498 14.278C8.60498 14.2453 8.61049 14.2097 8.62061 14.1793H8.62256C8.62626 14.1672 8.62972 14.1572 8.63232 14.152L8.63721 14.1422L8.63818 14.1393C8.64451 14.1241 8.65454 14.0977 8.67041 14.0719L8.67334 14.067L8.68701 14.0494C8.69002 14.0457 8.69167 14.0435 8.69287 14.0416L8.69678 14.0358L8.70166 14.0299C8.71173 14.0188 8.7295 13.9972 8.74561 13.9811C8.76142 13.962 8.77863 13.9498 8.78955 13.943C8.79494 13.9381 8.80094 13.9322 8.80811 13.9274V13.9264C8.82124 13.917 8.83306 13.9121 8.84326 13.9078C8.84804 13.9046 8.85191 13.9022 8.854 13.901C8.85601 13.8999 8.8587 13.8987 8.85986 13.8981C8.86131 13.8973 8.86258 13.8962 8.86279 13.8961L8.87158 13.8912L17.4468 10.1686L17.5366 10.1403ZM9.50928 22.5973L17.1665 26.2643V18.7037L9.50928 15.0367V22.5973ZM18.0815 18.7037V26.2643L25.7388 22.5973V15.0367L18.0815 18.7037ZM10.1509 14.3346L17.6235 17.9098L25.0981 14.3307L17.6245 11.0807L10.1509 14.3346ZM26.4175 13.9147L26.4155 13.9127L26.4116 13.9117L26.4175 13.9147Z" fill="black" stroke="black" stroke-width="0.163964"/>
  <path d="M17.2505 5.4672V9.55051H18V5.4672L18.7286 6.19882L19.2588 5.66716L17.6252 4.02917L15.9917 5.66716L16.5219 6.19882L17.2505 5.4672Z" fill="black"/>
  <path d="M17.2505 28.0214V32.1047L16.5219 31.373L15.9917 31.9047L17.6252 33.5427L19.2588 31.9047L18.7286 31.373L18 32.1047V28.0214H17.2505Z" fill="black"/>
  <path d="M30.6251 17.6828L31.3538 18.4114H27.2705V19.1608H31.3538L30.6251 19.8895L31.1568 20.4197L32.7904 18.7861L31.1568 17.1526L30.6251 17.6828Z" fill="black"/>
  <path d="M4.62469 19.8893L3.89602 19.1606H7.97933V18.4112H3.89602L4.62469 17.6825L4.09302 17.1523L2.45947 18.7859L4.09302 20.4194L4.62469 19.8893Z" fill="black"/>
  <rect x="0.491892" y="1.24189" width="33.4487" height="35.0883" rx="2.78739" stroke="black" stroke-width="0.983784"/>
</svg>