<svg width="26" height="22" viewBox="0 0 26 22" fill="none" xmlns="http://www.w3.org/2000/svg">
<path d="M0.666504 19.5844C2.96324 21.115 5.69854 21.9999 8.63005 21.9999C18.2786 21.9999 23.7262 13.5575 23.403 5.97602C24.4187 5.22266 25.2958 4.26601 25.9998 3.18977C25.065 3.62027 24.0609 3.90725 23.0106 4.03879C24.084 3.36914 24.9034 2.31683 25.2958 1.06122C24.2917 1.68305 23.1837 2.12549 21.995 2.36466C21.0486 1.31234 19.6982 0.666603 18.1979 0.666603C14.8393 0.666603 12.381 3.90726 13.1312 7.27946C8.81472 7.05225 4.98297 4.91174 2.42078 1.64716C1.0589 4.06271 1.71676 7.23163 4.02503 8.83402C3.17097 8.8101 2.37462 8.55899 1.6706 8.16437C1.61289 10.6636 3.3441 12.9955 5.83704 13.5097C5.10993 13.7129 4.30204 13.7608 3.49414 13.6053C4.152 15.7458 6.0794 17.3004 8.35305 17.3482C6.17173 19.13 3.42489 19.9192 0.666504 19.5844Z" fill="#F2EDE4"/>
</svg>
