<svg xmlns="http://www.w3.org/2000/svg" width="35" height="37" viewBox="0 0 35 37" fill="none">
  <path d="M17.3554 1.79639C15.4299 1.79639 13.5847 2.56264 12.2258 3.92489C10.8652 5.28877 10.1055 7.13732 10.1104 9.06119C10.1104 13.0562 13.3604 16.2459 17.3554 16.3276H17.3735C19.9686 16.3244 22.3656 14.9359 23.6608 12.6879C24.9559 10.4382 24.9526 7.66768 23.6526 5.42143C22.3509 3.17502 19.9504 1.79312 17.3554 1.79639ZM21.7825 13.4706C20.6134 14.6413 19.0269 15.2995 17.373 15.3044H17.355C15.4082 15.3044 13.5712 14.399 12.3859 12.855C11.2005 11.3094 10.801 9.302 11.3053 7.42067C11.8096 5.53938 13.1588 4.0003 14.9581 3.25533C16.7576 2.51037 18.8009 2.64463 20.4859 3.61882C22.1724 4.59138 23.3103 6.29419 23.5641 8.22448C23.8179 10.1549 23.1595 12.0935 21.7825 13.4706Z" fill="black"/>
  <path d="M17.3549 3.42562C15.084 3.42562 13.0356 4.79277 12.1662 6.89181C11.2968 8.99085 11.7766 11.4073 13.3828 13.0135C14.9889 14.6197 17.4057 15.0995 19.5045 14.2301C21.6035 13.3606 22.9707 11.3124 22.9707 9.04135C22.9674 5.94029 20.4558 3.42855 17.3549 3.42562ZM21.0536 9.53269H21.9624C21.869 10.4185 21.5203 11.2584 20.9587 11.951L20.3185 11.3108V11.3092C20.1253 11.1176 19.8159 11.1176 19.6226 11.3092C19.4311 11.5024 19.4311 11.8135 19.6226 12.0051L20.2628 12.6452H20.2645C19.5719 13.2068 18.7319 13.5556 17.8461 13.6489V12.7402C17.8461 12.47 17.6267 12.249 17.3549 12.249C17.0831 12.249 16.8637 12.47 16.8637 12.7402V13.6489C15.9779 13.5556 15.138 13.2068 14.4454 12.6452L15.0856 12.0051H15.0872C15.2788 11.8135 15.2788 11.5024 15.0872 11.3092C14.894 11.1176 14.583 11.1176 14.3914 11.3092L13.7512 11.9494V11.951C13.1896 11.2584 12.8408 10.4185 12.7475 9.53268H13.6563C13.9264 9.53268 14.1475 9.31328 14.1475 9.04148C14.1475 8.76967 13.9264 8.55027 13.6563 8.55027H12.7475C12.8409 7.66448 13.1896 6.82454 13.7512 6.13197L14.3914 6.77214V6.77378C14.5829 6.96534 14.894 6.96534 15.0872 6.77378C15.2788 6.58057 15.2788 6.27113 15.0872 6.0779L14.4471 5.43773H14.4454C15.138 4.87615 15.9779 4.52737 16.8637 4.43406V5.34279C16.8637 5.61295 17.0831 5.83399 17.3549 5.83399C17.6267 5.83399 17.8461 5.61296 17.8461 5.34279V4.43406C18.7319 4.52739 19.5719 4.87615 20.2645 5.43773L19.6243 6.0779H19.6226C19.4311 6.2711 19.4311 6.58055 19.6226 6.77378C19.8158 6.96534 20.1269 6.96534 20.3185 6.77378L20.9587 6.13361V6.13197C21.5203 6.82454 21.8691 7.66448 21.9624 8.55027H21.0536C20.7835 8.55027 20.5624 8.76968 20.5624 9.04148C20.5624 9.31328 20.7835 9.53269 21.0536 9.53269Z" fill="black"/>
  <path d="M17.8464 7.89371V6.98498C17.8464 6.71318 17.627 6.49377 17.3552 6.49377C17.0834 6.49377 16.864 6.71318 16.864 6.98498V7.89371C16.3188 8.12784 16.0126 8.71235 16.1321 9.29196C16.2517 9.8732 16.7625 10.2907 17.3552 10.2907C17.948 10.2907 18.4588 9.8732 18.5783 9.29196C18.6979 8.71235 18.3917 8.12784 17.8464 7.89371ZM17.3552 9.30671C17.2472 9.30671 17.1506 9.24286 17.1096 9.14298C17.0687 9.0431 17.0916 8.93013 17.1669 8.85317C17.2439 8.77785 17.3569 8.75493 17.4568 8.79587C17.5566 8.8368 17.6205 8.9334 17.6205 9.04146C17.6205 9.18882 17.5026 9.30671 17.3552 9.30671Z" fill="black"/>
  <path d="M31.0549 0.0363879H3.65615C1.63897 0.0363879 0.00331131 1.67042 0 3.68759V33.1952C0.00163721 34.7768 1.28366 36.0572 2.86529 36.0572H31.846C33.4276 36.0572 34.7096 34.7768 34.7113 33.1952V3.68885C34.708 1.67167 33.0721 0.0380226 31.0549 0.0363879ZM33.7287 33.1952C33.727 34.2333 32.8855 35.0748 31.8458 35.0748H2.86508C1.82537 35.0748 0.983795 34.2333 0.98216 33.1952V32.8956C1.50283 33.3524 2.17247 33.6029 2.86508 33.6013H31.8458C32.5383 33.6029 33.208 33.3524 33.7287 32.8956V33.1952ZM33.7287 30.7392C33.727 31.7773 32.8855 32.6189 31.8458 32.6189H2.86508C1.82537 32.6189 0.983795 31.7773 0.98216 30.7392V18.4559H33.7285L33.7287 30.7392ZM33.7287 17.4738H0.982328V3.68914C0.983965 2.21393 2.18085 1.01867 3.65606 1.01867H31.0549C32.5301 1.01867 33.727 2.21393 33.7286 3.68914L33.7287 17.4738Z" fill="black"/>
  <path d="M18.9922 29.5932C19.264 29.5932 19.4834 29.3738 19.4834 29.102V22.0581C19.4834 21.7863 19.264 21.5669 18.9922 21.5669C18.7204 21.5669 18.501 21.7863 18.501 22.0581V29.102C18.501 29.3738 18.7204 29.5932 18.9922 29.5932Z" fill="black"/>
  <path d="M15.7178 29.5932C15.9896 29.5932 16.209 29.3738 16.209 29.102V22.0581C16.209 21.7863 15.9896 21.5669 15.7178 21.5669C15.446 21.5669 15.2266 21.7863 15.2266 22.0581V29.102C15.2266 29.3738 15.446 29.5932 15.7178 29.5932Z" fill="black"/>
  <path d="M12.4434 29.5932C12.7151 29.5932 12.9346 29.3738 12.9346 29.102V22.0581C12.9346 21.7863 12.7152 21.5669 12.4434 21.5669C12.1715 21.5669 11.9521 21.7863 11.9521 22.0581V29.102C11.9521 29.3738 12.1715 29.5932 12.4434 29.5932Z" fill="black"/>
  <path d="M9.16894 29.5932C9.44074 29.5932 9.66015 29.3738 9.66015 29.102V22.0581C9.66015 21.7863 9.44074 21.5669 9.16894 21.5669C8.89714 21.5669 8.67773 21.7863 8.67773 22.0581V29.102C8.67773 29.3738 8.89714 29.5932 9.16894 29.5932Z" fill="black"/>
  <path d="M22.2676 29.5932C22.5394 29.5932 22.7588 29.3738 22.7588 29.102V22.0581C22.7588 21.7863 22.5394 21.5669 22.2676 21.5669C21.9958 21.5669 21.7764 21.7863 21.7764 22.0581V29.102C21.7764 29.3738 21.9958 29.5932 22.2676 29.5932Z" fill="black"/>
  <path d="M25.542 29.5932C25.8138 29.5932 26.0332 29.3738 26.0332 29.102V22.0581C26.0332 21.7863 25.8138 21.5669 25.542 21.5669C25.2702 21.5669 25.0508 21.7863 25.0508 22.0581V29.102C25.0508 29.3738 25.2702 29.5932 25.542 29.5932Z" fill="black"/>
  <path d="M2.45556 3.25867C2.18377 3.25867 1.96436 3.47807 1.96436 3.74987V4.26564C1.96436 4.5358 2.18376 4.75685 2.45556 4.75685C2.72737 4.75685 2.94677 4.53581 2.94677 4.26564V3.74987C2.94677 3.47808 2.72737 3.25867 2.45556 3.25867Z" fill="black"/>
  <path d="M2.45556 5.32812C2.18377 5.32812 1.96436 5.54916 1.96436 5.81933V11.2226C1.96436 11.4944 2.18376 11.7138 2.45556 11.7138C2.72737 11.7138 2.94677 11.4944 2.94677 11.2226V5.81933C2.94677 5.54917 2.72737 5.32812 2.45556 5.32812Z" fill="black"/>
</svg>