<svg width="27" height="19" viewBox="0 0 27 19" fill="none" xmlns="http://www.w3.org/2000/svg">
<path d="M26.4161 2.96207C26.1021 1.78978 25.1916 0.879176 24.0298 0.565171C21.9262 -3.6855e-05 13.4906 -4.57764e-05 13.4906 -4.57764e-05C13.4906 -4.57764e-05 5.05506 -3.6855e-05 2.9514 0.565171C1.78968 0.879176 0.879141 1.80025 0.565162 2.96207C-6.2382e-08 5.07636 0 9.49336 0 9.49336C0 9.49336 -6.2382e-08 13.9104 0.565162 16.0247C0.879141 17.1969 1.78968 18.1075 2.9514 18.4215C5.05506 18.9867 13.4906 18.9868 13.4906 18.9868C13.4906 18.9868 21.9262 18.9867 24.0298 18.4215C25.1916 18.1075 26.1021 17.1865 26.4161 16.0247C26.9813 13.9104 26.9813 9.49336 26.9813 9.49336C26.9813 9.49336 26.9813 5.07636 26.4161 2.96207ZM10.7381 13.5022V5.48457L17.7817 9.49336L10.7381 13.5022Z" fill="#F2EDE4"/>
</svg>
